<svg xmlns="http://www.w3.org/2000/svg" width="1024" height="256" viewBox="15 10 1000 235">
<g>
<path d="M 160.12 236.56 C152.12,238.26 139.34,238.28 132.45,236.60 C125.44,234.90 114.51,229.63 108.35,224.97 C105.50,222.82 100.99,218.12 98.33,214.53 C94.11,208.82 93.09,208.00 90.25,208.00 L 87.00 208.00 L 87.00 164.06 L 99.75 163.78 C111.74,163.52 112.50,163.38 112.50,161.50 C112.50,159.62 111.74,159.48 99.75,159.22 L 87.00 158.94 L 87.00 149.00 L 103.00 149.00 L 103.00 143.65 C103.00,140.71 103.50,136.87 104.11,135.12 C106.20,129.13 107.12,129.00 146.89,129.00 L 182.89 129.00 L 185.69 131.41 C188.18,133.54 188.56,134.67 189.00,141.16 L 189.50 148.50 L 197.25 148.79 L 205.00 149.08 L 205.00 159.00 L 193.58 159.00 C181.49,159.00 179.00,159.43 179.00,161.50 C179.00,163.57 181.49,164.00 193.60,164.00 L 205.04 164.00 L 204.50 207.50 L 201.48 207.80 C199.15,208.02 197.82,209.09 195.74,212.38 C188.74,223.44 173.63,233.70 160.12,236.56 ZM 534.37 168.50 L 531.50 177.50 L 518.83 177.78 C511.86,177.93 505.94,177.71 505.68,177.28 C505.20,176.50 498.97,156.60 496.52,148.00 C495.24,143.50 480.15,95.28 477.52,87.25 L 476.12 83.00 L 500.63 83.00 L 503.95 96.25 C505.78,103.54 508.27,113.10 509.49,117.50 C510.71,121.90 513.41,132.14 515.49,140.25 C517.57,148.36 519.59,155.00 519.98,155.00 C520.37,155.00 521.88,149.71 523.34,143.25 C524.79,136.79 528.01,124.30 530.48,115.50 C532.96,106.70 535.94,95.79 537.11,91.25 L 539.25 83.00 L 561.66 83.00 L 557.39 96.25 C555.04,103.54 549.54,120.75 545.18,134.50 C540.81,148.25 535.94,163.55 534.37,168.50 ZM 581.55 178.88 C576.07,180.26 573.80,180.21 567.72,178.58 C559.26,176.30 554.94,170.48 554.80,161.16 C554.67,151.67 559.01,146.01 569.42,142.12 C573.92,140.43 587.69,138.00 592.72,138.00 C594.43,138.00 594.36,132.81 592.60,128.58 C590.68,124.00 586.46,122.66 577.82,123.88 C574.23,124.39 569.48,125.73 567.26,126.87 L 563.23 128.92 L 560.58 122.83 C559.13,119.47 558.13,116.53 558.37,116.30 C558.60,116.06 562.10,114.70 566.15,113.26 C571.54,111.34 576.14,110.53 583.41,110.20 C600.18,109.45 608.07,112.54 612.12,121.46 C613.71,124.96 613.96,128.28 613.98,146.26 C614.00,165.77 614.12,167.12 616.00,168.73 C617.34,169.88 618.00,171.68 618.00,174.22 L 618.00 178.00 L 599.16 178.00 L 598.00 174.51 C597.37,172.60 596.43,170.77 595.91,170.44 C595.39,170.12 592.94,171.64 590.47,173.81 C587.83,176.14 584.16,178.23 581.55,178.88 ZM 764.04 178.99 C748.82,181.88 732.97,177.34 726.72,168.31 C722.37,162.02 720.91,156.42 720.87,145.79 C720.81,128.96 725.34,119.33 736.04,113.54 C740.68,111.03 742.87,110.52 750.65,110.18 C771.32,109.26 780.82,118.47 781.31,139.94 L 781.50 148.50 L 761.63 148.77 L 741.76 149.04 L 742.22 154.59 C742.59,159.15 743.24,160.70 745.84,163.30 C748.71,166.18 749.67,166.49 756.37,166.83 C762.26,167.13 764.70,166.78 768.50,165.10 C771.11,163.95 773.78,163.00 774.43,163.00 C775.07,163.00 776.57,165.29 777.75,168.08 L 779.90 173.16 L 774.62 175.57 C771.73,176.90 766.96,178.44 764.04,178.99 ZM 375.01 128.50 L 375.00 178.00 L 361.00 178.00 L 361.00 80.00 L 375.00 80.00 L 375.00 99.50 C375.00,110.22 375.37,119.00 375.83,119.00 C376.28,119.00 377.74,117.83 379.08,116.40 C383.32,111.85 388.22,110.00 396.01,110.00 C404.34,110.00 408.21,111.65 410.73,116.27 C412.29,119.11 412.54,123.04 412.81,148.75 L 413.11 178.00 L 399.00 178.00 L 399.00 152.55 C399.00,125.04 398.66,122.93 393.89,120.95 C389.73,119.23 384.85,120.53 379.61,124.78 ZM 468.33 176.52 C461.84,179.51 450.22,180.55 444.50,178.66 C429.19,173.59 423.49,164.15 423.59,144.00 C423.71,120.92 432.83,110.00 451.99,110.00 C461.15,110.00 464.40,111.21 470.23,116.79 C475.22,121.57 477.39,128.25 477.45,139.00 L 477.50 147.50 L 457.75 147.77 L 438.00 148.04 L 438.00 152.31 C438.00,157.91 441.59,164.87 446.00,167.84 C449.01,169.86 450.37,170.13 455.71,169.72 C459.95,169.39 463.34,168.41 466.39,166.62 C468.85,165.18 471.10,164.00 471.41,164.00 C471.71,164.00 472.91,165.86 474.07,168.14 L 474.17 168.33 C475.11,170.17 475.66,171.25 475.44,172.14 C475.11,173.43 473.14,174.31 468.33,176.52 ZM 702.21 169.50 L 699.50 177.50 L 688.38 177.78 L 677.27 178.06 L 676.20 175.28 C675.60,173.75 670.75,159.23 665.41,143.00 C660.07,126.78 655.50,112.94 655.24,112.25 C654.90,111.30 657.43,111.00 665.89,111.00 C675.40,111.00 677.00,111.23 677.00,112.60 C677.00,114.37 687.64,154.34 688.96,157.50 C689.24,158.17 689.41,158.75 689.64,158.78 C690.21,158.83 691.14,155.35 695.01,140.83 C695.33,139.63 695.67,138.35 696.04,137.00 C698.90,126.28 701.84,116.04 702.57,114.25 L 703.90 111.00 L 713.06 111.00 C720.87,111.00 722.13,111.23 721.63,112.53 C721.11,113.89 709.47,148.02 702.21,169.50 ZM 648.00 80.00 L 648.00 178.00 L 628.00 178.00 L 628.00 80.00 ZM 67.00 212.00 L 66.50 219.50 L 61.84 219.80 C58.99,219.99 56.89,219.64 56.44,218.90 C55.65,217.62 55.07,151.45 55.79,144.25 L 56.21 140.00 L 67.02 140.00 L 66.83 149.51 C66.70,155.36 67.05,159.45 67.73,160.13 C70.11,162.51 71.00,159.74 71.00,149.94 L 71.00 140.00 L 82.02 140.00 L 81.50 219.50 L 71.50 219.50 L 71.00 212.00 C70.61,206.22 70.16,204.50 69.00,204.50 C67.84,204.50 67.39,206.22 67.00,212.00 ZM 220.79 212.25 L 220.50 219.50 L 210.00 220.10 L 210.00 140.00 L 220.93 140.00 L 221.22 150.25 C221.45,158.57 221.78,160.50 223.00,160.50 C224.22,160.50 224.55,158.57 224.78,150.25 L 225.07 140.00 L 236.02 140.00 L 235.50 219.50 L 225.50 219.50 L 225.21 212.25 C224.95,205.88 224.68,205.00 223.00,205.00 C221.32,205.00 221.05,205.88 220.79,212.25 ZM 329.00 95.06 L 329.00 178.00 L 315.00 178.00 L 315.00 95.06 L 303.25 94.78 L 291.50 94.50 L 290.90 83.00 L 353.10 83.00 L 352.50 94.50 L 340.75 94.78 ZM 264.04 160.00 L 263.50 206.50 L 240.00 207.06 L 240.00 160.00 ZM 50.77 206.36 C47.69,207.19 30.50,207.16 29.67,206.33 C29.30,205.97 29.00,195.38 29.00,182.80 L 29.00 159.94 L 52.50 160.50 L 53.04 205.76 ZM 174.07 105.50 L 173.50 123.50 L 146.25 123.77 L 119.00 124.03 L 118.84 118.27 C118.75,115.09 118.57,110.92 118.44,108.98 L 118.21 105.46 L 146.14 105.48 ZM 439.63 138.30 C440.66,138.58 446.45,138.73 452.50,138.65 L 463.50 138.50 L 463.81 134.82 C464.24,129.58 462.44,123.76 459.53,121.03 C456.56,118.24 449.76,117.72 445.56,119.97 C440.22,122.83 435.56,137.22 439.63,138.30 ZM 742.00 134.25 L 742.00 139.00 L 752.03 139.00 C763.67,139.00 763.94,138.78 762.09,130.53 C760.73,124.41 758.66,122.14 753.76,121.35 C747.07,120.26 742.01,125.82 742.00,134.25 ZM 579.32 166.49 C581.36,167.35 583.34,167.48 585.41,166.88 C587.10,166.40 588.59,166.00 588.71,166.00 C588.83,166.00 590.07,164.32 591.46,162.27 C593.39,159.44 594.00,157.26 594.00,153.27 L 594.00 148.00 L 590.25 148.01 C585.01,148.01 579.22,149.78 576.94,152.06 C575.68,153.32 575.00,155.38 575.00,157.92 C575.00,163.37 575.84,165.03 579.32,166.49 ZM 154.93 86.06 C151.99,87.93 137.83,86.70 135.93,84.42 C134.96,83.24 134.99,83.06 136.11,83.47 C138.25,84.26 142.73,74.59 141.13,72.65 C140.17,71.51 140.19,71.06 141.21,70.59 C141.92,70.25 141.49,70.17 140.25,70.40 C139.01,70.63 138.21,70.47 138.47,70.04 C139.28,68.75 146.00,68.05 148.50,69.00 C150.67,69.83 150.77,70.15 149.70,72.99 C148.60,75.89 148.75,76.29 152.15,79.49 C154.14,81.37 156.01,82.66 156.31,82.36 C156.61,82.06 156.74,82.57 156.60,83.49 C156.47,84.41 155.72,85.57 154.93,86.06 ZM 52.82 153.25 L 53.13 156.00 L 29.00 156.00 L 29.00 149.29 L 37.17 148.73 C47.65,148.01 52.37,149.37 52.82,153.25 ZM 264.00 152.50 L 264.00 156.00 L 240.00 156.00 L 240.00 153.54 C240.00,150.06 242.24,149.24 252.50,148.98 C253.04,148.97 253.55,148.95 254.04,148.94 C260.77,148.76 262.96,148.70 263.67,149.70 C264.01,150.18 264.01,150.91 264.00,151.99 C264.00,152.15 264.00,152.32 264.00,152.50 Z" fill="rgb(10,44,78)"/>
<path d="M 160.70 100.97 C145.25,102.21 142.06,102.16 126.00,100.42 C102.56,97.88 86.77,93.52 72.87,85.74 C60.87,79.02 55.01,71.09 54.75,61.19 C54.04,33.93 96.82,14.38 153.00,16.32 C189.84,17.59 213.13,24.80 227.54,39.40 C233.25,45.19 234.92,47.63 236.41,52.35 C240.60,65.67 234.54,77.97 219.62,86.46 C207.51,93.35 184.35,99.05 160.70,100.97 ZM 990.26 176.34 C981.94,180.49 973.59,180.38 965.02,176.01 C960.11,173.50 959.36,173.50 958.71,176.00 C958.24,177.80 957.35,178.00 949.59,178.00 L 941.00 178.00 L 941.00 80.00 L 961.00 80.00 L 961.00 99.00 C961.00,109.45 961.25,118.00 961.56,118.00 C961.87,118.00 963.81,116.64 965.87,114.98 C970.47,111.29 974.71,110.00 982.28,110.00 C988.35,110.00 994.03,112.16 997.21,115.68 C998.15,116.72 1000.15,120.25 1001.66,123.53 C1004.18,129.01 1004.41,130.53 1004.46,142.00 C1004.52,161.13 1000.32,171.31 990.26,176.34 ZM 813.77 156.75 L 813.50 177.50 L 803.45 177.78 C797.92,177.94 793.08,177.74 792.68,177.35 C792.29,176.95 791.99,155.56 792.02,129.82 L 792.08 83.00 L 814.00 83.00 L 814.00 101.38 C814.00,119.60 814.02,119.77 816.25,120.37 C819.19,121.16 836.38,121.18 838.42,120.39 C839.78,119.87 840.00,117.24 840.00,101.39 L 840.00 83.00 L 861.02 83.00 L 860.76 130.25 L 860.50 177.50 L 850.25 177.78 L 840.00 178.07 L 840.00 137.30 L 831.75 136.65 C827.21,136.30 821.37,136.01 818.77,136.01 L 814.04 136.00 ZM 897.79 177.82 C886.60,181.22 877.27,178.65 873.36,171.10 C871.70,167.89 871.47,164.51 871.19,139.90 L 870.89 112.29 L 876.19 111.65 C879.11,111.30 883.64,111.01 886.25,111.01 L 891.00 111.00 L 891.00 134.68 C891.00,159.80 891.60,163.91 895.55,166.03 C898.55,167.63 903.22,166.45 906.12,163.37 C908.46,160.88 908.51,160.44 909.00,136.17 L 909.50 111.50 L 919.76 111.21 L 930.03 110.93 L 929.76 144.21 L 929.50 177.50 L 920.25 177.79 L 911.00 178.08 L 911.00 174.70 C911.00,172.85 910.73,171.07 910.41,170.74 C910.08,170.42 907.85,171.65 905.45,173.48 C903.05,175.32 899.61,177.27 897.79,177.82 ZM 107.00 82.20 C112.86,83.01 122.00,79.89 125.79,75.77 C128.29,73.06 128.24,68.82 125.70,66.27 C124.46,65.03 99.26,53.96 89.62,50.42 C84.52,48.55 80.98,48.66 78.37,50.77 C72.34,55.65 72.68,63.67 79.15,69.67 C83.62,73.81 100.15,81.25 107.00,82.20 ZM 175.93 81.05 C186.95,84.39 209.39,76.22 216.33,66.34 C218.75,62.89 219.14,61.57 218.59,58.62 C217.64,53.56 213.53,49.00 209.92,49.00 C205.84,49.00 168.89,64.49 166.75,67.09 C163.65,70.86 164.48,74.39 169.18,77.50 C171.48,79.03 174.52,80.62 175.93,81.05 ZM 966.66 165.87 C969.65,167.61 975.49,167.19 978.24,165.03 C982.53,161.65 984.86,147.63 983.07,135.89 C981.57,125.98 979.73,123.59 973.34,123.20 C963.80,122.64 960.99,127.75 961.02,145.62 C961.05,157.24 962.83,163.64 966.66,165.87 ZM 131.00 57.30 C133.00,58.00 136.10,57.11 138.25,55.23 C139.71,53.94 140.00,51.92 140.00,42.88 C140.00,29.60 139.85,29.45 127.06,30.28 C115.63,31.03 98.44,35.27 93.69,38.53 C92.03,39.67 92.14,39.92 95.19,41.76 C97.89,43.39 125.51,55.37 131.00,57.30 ZM 156.50 56.81 C157.60,57.43 158.95,57.96 159.50,57.98 C163.27,58.12 199.48,41.31 199.29,39.50 C199.01,36.72 179.02,31.47 164.40,30.35 C153.05,29.48 153.00,29.54 153.02,42.87 C153.03,54.02 153.27,54.97 156.50,56.81 ZM 154.93 86.06 C155.72,85.57 156.47,84.41 156.60,83.49 C156.74,82.57 156.61,82.06 156.31,82.36 C156.01,82.66 154.14,81.37 152.15,79.49 C148.75,76.29 148.60,75.89 149.70,72.99 C150.77,70.15 150.67,69.83 148.50,69.00 C148.29,68.92 148.04,68.85 147.77,68.79 C150.04,68.88 152.24,69.11 153.84,69.46 C156.75,70.10 157.14,69.96 156.84,68.35 C156.39,65.94 150.44,63.00 146.00,63.01 C141.90,63.01 136.00,66.28 136.00,68.55 C136.00,69.74 136.56,69.96 138.24,69.42 C138.94,69.20 139.97,69.03 141.19,68.92 C139.83,69.18 138.76,69.57 138.47,70.04 C138.21,70.47 139.01,70.63 140.25,70.40 C141.49,70.17 141.92,70.25 141.21,70.59 C140.19,71.06 140.17,71.51 141.13,72.65 C142.73,74.59 138.25,84.26 136.11,83.47 C134.99,83.06 134.96,83.24 135.93,84.42 C136.54,85.15 138.39,85.77 140.73,86.21 C138.30,85.95 136.80,85.45 135.38,84.60 C132.30,82.74 132.22,82.75 127.52,85.10 C123.14,87.29 122.95,87.52 125.13,88.14 C128.44,89.06 160.64,89.05 165.50,88.12 L 169.50 87.35 L 164.66 84.94 C159.86,82.53 159.82,82.53 158.37,84.51 C157.59,85.57 156.79,86.08 154.43,86.31 C154.62,86.24 154.79,86.15 154.93,86.06 Z" fill="rgb(49,137,62)"/>
<path d="M 160.12 236.56 C173.63,233.70 188.74,223.44 195.74,212.38 C197.82,209.09 199.15,208.02 201.48,207.80 L 201.48 207.80 C199.15,208.02 197.82,209.09 195.74,212.38 C188.74,223.44 173.63,233.70 160.12,236.56 ZM 67.00 212.00 C67.39,206.22 67.84,204.50 69.00,204.50 C70.16,204.50 70.61,206.22 71.00,212.00 L 71.00 212.00 C70.61,206.22 70.16,204.50 69.00,204.50 C67.84,204.50 67.39,206.22 67.00,212.00 ZM 220.79 212.25 C221.05,205.88 221.32,205.00 223.00,205.00 C224.68,205.00 224.95,205.88 225.21,212.25 L 225.21 212.25 C224.95,205.88 224.68,205.00 223.00,205.00 C221.32,205.00 221.05,205.88 220.79,212.25 ZM 50.77 206.36 L 50.77 206.36 C30.50,207.16 29.30,205.97 29.67,206.33 C30.50,207.16 47.69,207.19 50.77,206.36 ZM 263.77 183.25 L 263.77 183.25 L 251.75 206.78 L 263.50 206.50 L 263.77 183.25 ZM 468.33 176.52 C476.56,172.73 476.48,172.86 474.07,168.14 C474.07,168.14 C476.48,172.86 476.56,172.73 468.33,176.52 ZM 581.55 178.88 C584.16,178.23 587.83,176.14 590.47,173.81 C590.47,173.81 C587.83,176.14 584.16,178.23 581.55,178.88 ZM 764.04 178.99 C766.96,178.44 771.73,176.90 774.62,175.57 L 774.62,175.57 C771.73,176.90 766.96,178.44 764.04,178.99 ZM 897.79 177.82 C899.61,177.27 903.05,175.32 905.45,173.48 C905.45,173.48 C903.05,175.32 899.61,177.27 897.79,177.82 ZM 990.26 176.34 C1000.32,171.31 1004.52,161.13 1004.46,142.00 C1004.46,142.00 1000.32,171.31 990.26,176.34 ZM 52.82 153.25 C52.37,149.37 47.65,148.01 37.17,148.73 L 37.17,148.73 C47.65,148.01 52.37,149.37 52.82,153.25 ZM 264.00 152.50 C264.00,148.50 264.56,148.67 252.50,148.98 L 252.50,148.98 C264.56,148.67 264.00,148.50 264.00,152.50 ZM 173.78 114.50 L 174.07 105.50 L 174.07 105.50 L 173.78 114.50 ZM 160.70 100.97 C184.35,99.05 207.51,93.35 219.62,86.46 C219.62,86.46 184.35,99.05 160.70,100.97 ZM 439.63 138.30 C435.56,137.22 440.22,122.83 445.56,119.97 L 445.56,119.97 C440.22,122.83 435.56,137.22 439.63,138.30 ZM 579.32 166.49 C575.84,165.03 575.00,163.37 575.00,157.92 L 575.00,157.92 C575.00,163.37 575.84,165.03 579.32,166.49 ZM 742.00 134.25 C742.01,125.82 747.07,120.26 753.76,121.35 L 753.76,121.35 C747.07,120.26 742.01,125.82 742.00,134.25 ZM 966.66 165.87 C962.83,163.64 961.05,157.24 961.02,145.62 L 961.02,145.62 C961.05,157.24 962.83,163.64 966.66,165.87 ZM 125.13 88.14 C122.95,87.52 123.14,87.29 127.52,85.10 L 127.52,85.10 C123.14,87.29 122.95,87.52 125.13,88.14 ZM 107.00 82.20 C100.15,81.25 83.62,73.81 79.15,69.67 L 79.15,69.67 C83.62,73.81 100.15,81.25 107.00,82.20 ZM 175.93 81.05 C174.52,80.62 171.48,79.03 169.18,77.50 L 169.18,77.50 C171.48,79.03 174.52,80.62 175.93,81.05 ZM 136.00 68.55 C136.00,66.28 141.90,63.01 146.00,63.01 L 146.00,63.01 C141.90,63.01 136.00,66.28 136.00,68.55 ZM 131.00 57.30 C125.51,55.37 97.89,43.39 95.19,41.76 L 95.19,41.76 C97.89,43.39 125.51,55.37 131.00,57.30 ZM 156.50 56.81 C153.27,54.97 153.03,54.02 153.02,42.87 L 153.02,42.87 C153.00,29.54 153.05,29.48 164.40,30.35 L 164.40,30.35 C153.05,29.48 153.00,29.54 156.50,56.81 Z" fill="rgb(255,255,255)"/>
</g>
</svg>